# xmcd
#
# Track frame offsets: 
#        187
#        22635
#        44692
#        64662
#        83250
#        100755
#        120897
#        139655
#        161332
#        181542
#        199487
#        217317
#
# Disc length: 3138 seconds
#
# Revision: 0
# Processed by: cddbd v1.5.1PL2 Copyright (c) Steve Scherf et al.
# Submitted via: ExactAudioCopy v0.95a4
#
DISCID=920c400c
DTITLE=Martine Girault - S.O.U.L..
DYEAR=1997
DGENRE=Soul
TTITLE0=Need The Sun
TTITLE1=My Love Is Calling
TTITLE2=If I Had A Dime
TTITLE3=Feel The Love
TTITLE4=Don't Let It Go To Your Head
TTITLE5=Every Minute
TTITLE6=Turn Off The Lights
TTITLE7=Sound Of Urban London
TTITLE8=Better Days
TTITLE9=Can We Make A Deal
TTITLE10=Out Of The Ghetto
TTITLE11=Lies
EXTD=
EXTT0=
EXTT1=
EXTT2=
EXTT3=
EXTT4=
EXTT5=
EXTT6=
EXTT7=
EXTT8=
EXTT9=
EXTT10=
EXTT11=
PLAYORDER=
